{
	"asset":{
		"version":"2.0",
		"generator":"Created using the official Cinema 4D glTF Exporter 1.000x284978"
	},
	"scenes":[{
		"nodes":[0]
	}],
	"nodes":[{
		"name":"TERRAIN",
		"translation":[0.0,
		0.0,
		0.0],
		"rotation":[0.0,
		0.0,
		0.0,
		-1.0],
		"scale":[0.009999999776482582,
		0.009999999776482582,
		0.009999999776482582],
		"mesh":0
	}],
	"meshes":[{
		"primitives":[{
			"attributes":{
				"POSITION":1,
				"NORMAL":2,
				"TEXCOORD_0":3
			},
			"indices":0
		}],
		"name":"TERRAIN"
	}],
	"accessors":[{
		"bufferView":0,
		"type":"SCALAR",
		"componentType":5123,
		"count":122112,
		"min":[0],
		"byteOffset":0,
		"max":[20952]
	},
	{
		"bufferView":1,
		"type":"VEC3",
		"componentType":5126,
		"count":20953,
		"min":[-55063.62109375,
		-396.88671875,
		-49999.3984375],
		"byteOffset":0,
		"max":[45071.91015625,
		8821.73046875,
		50041.5390625]
	},
	{
		"bufferView":1,
		"type":"VEC3",
		"componentType":5126,
		"count":20953,
		"min":[-0.9747779369354248,
		-0.9994810819625855,
		-0.803320050239563],
		"byteOffset":12,
		"max":[0.9902137517929077,
		0.999999463558197,
		0.8921799659729004]
	},
	{
		"bufferView":1,
		"type":"VEC2",
		"componentType":5126,
		"count":20953,
		"min":[0.000719127943739295,
		0.0007160529494285584],
		"byteOffset":24,
		"max":[0.9963148832321167,
		0.9992636442184448]
	}],
	"bufferViews":[{
		"buffer":0,
		"byteOffset":0,
		"byteLength":244224,
		"target":34963
	},
	{
		"buffer":0,
		"byteOffset":244224,
		"byteLength":670496,
		"target":34962,
		"byteStride":32
	}],
	"buffers":[{
		"uri":"data:application/octet-stream;base64,",
		"byteLength":914720
	}]
}