{
	"nodes":[{
		"name":"TERRAIN",
		"mesh":0
	}],
	"asset":{
		"version":"2.0",
		"generator":"Created using the official Cinema 4D glTF Exporter 1.000x284978"
	},
	"scenes":[{
		"nodes":[0]
	}],
	"meshes":[{
		"name":"TERRAIN",
		"primitives":[{
			"attributes":{
				"POSITION":1,
				"NORMAL":2,
				"TEXCOORD_0":3
			},
			"indices":0
		}]
	}],
	"accessors":[{
		"bufferView":0,
		"type":"SCALAR",
		"componentType":5123,
		"count":5088,
		"byteOffset":0,
		"min":[0],
		"max":[1001]
	},
	{
		"bufferView":1,
		"type":"VEC3",
		"componentType":5126,
		"count":1002,
		"byteOffset":0,
		"min":[-550.0790405273438,
		4.415397644042969,
		-499.9999694824219],
		"max":[449.9209289550781,
		89.91130065917969,
		499.9999694824219]
	},
	{
		"bufferView":1,
		"type":"VEC3",
		"componentType":5126,
		"count":1002,
		"byteOffset":12,
		"min":[-0.35967686772346499,
		0.9321249127388,
		-0.23431961238384248],
		"max":[0.13594448566436768,
		0.9999951124191284,
		0.08530719578266144]
	},
	{
		"bufferView":1,
		"type":"VEC2",
		"componentType":5126,
		"count":1002,
		"byteOffset":24,
		"min":[0.0007132813334465027,
		0.0007132887840270996],
		"max":[0.9963393211364746,
		0.9992866516113281]
	}],
	"bufferViews":[{
		"buffer":0,
		"byteOffset":0,
		"byteLength":10176,
		"target":34963
	},
	{
		"buffer":0,
		"byteOffset":10176,
		"byteLength":32064,
		"target":34962,
		"byteStride":32
	}],
	"buffers":[{
		"uri":"data:application/octet-stream;base64,",
		"byteLength":42240
	}]
}