{
	"asset":{
		"version":"2.0",
		"generator":"Created using the official Cinema 4D glTF Exporter 1.000x284978"
	},
	"scenes":[{
		"nodes":[0]
	}],
	"nodes":[{
		"name":"WEB_LIGHT_A",
		"mesh":0
	}],
	"meshes":[{
		"name":"WEB_LIGHT_A",
		"primitives":[{
			"attributes":{
				"POSITION":1,
				"NORMAL":2,
				"TEXCOORD_0":3
			},
			"indices":0
		}]
	}],
	"accessors":[{
		"bufferView":0,
		"type":"SCALAR",
		"componentType":5123,
		"count":215376,
		"max":[37285],
		"byteOffset":0,
		"min":[0]
	},
	{
		"bufferView":1,
		"type":"VEC3",
		"componentType":5126,
		"count":37286,
		"max":[23.019121170043947,
		67.6161880493164,
		23.019121170043947],
		"byteOffset":0,
		"min":[-23.019123077392579,
		-0.891312837600708,
		-23.019121170043947]
	},
	{
		"bufferView":1,
		"type":"VEC3",
		"componentType":5126,
		"count":37286,
		"max":[0.9999583959579468,
		1.0,
		0.9999583959579468],
		"byteOffset":12,
		"min":[-0.9999585151672363,
		-1.0,
		-0.9999583959579468]
	},
	{
		"bufferView":1,
		"type":"VEC2",
		"componentType":5126,
		"count":37286,
		"max":[0.9988805055618286,
		0.9276964664459229],
		"byteOffset":24,
		"min":[0.001119367778301239,
		0.001119367778301239]
	}],
	"bufferViews":[{
		"buffer":0,
		"byteOffset":0,
		"target":34963,
		"byteLength":430752
	},
	{
		"buffer":0,
		"byteOffset":430752,
		"target":34962,
		"byteLength":1193152,
		"byteStride":32
	}],
	"buffers":[{
		"uri":"data:application/octet-stream;base64,",
		"byteLength":1623904
	}]
}