{
	"asset":{
		"version":"2.0",
		"generator":"Created using the official Cinema 4D glTF Exporter 1.000x284978"
	},
	"scenes":[{
		"nodes":[0]
	}],
	"nodes":[{
		"name":"LEGS_SHORT",
		"mesh":0
	}],
	"materials":[{
		"pbrMetallicRoughness":{
			"baseColorFactor":[1.0,
			1.0,
			1.0,
			1.0],
			"metallicFactor":1.0,
			"roughnessFactor":1.0
		},
		"emissiveFactor":[0.0,
		0.0,
		0.0],
		"alphaMode":"OPAQUE",
		"doubleSided":false,
		"name":""
	}],
	"meshes":[{
		"name":"LEGS_SHORT",
		"primitives":[{
			"attributes":{
				"POSITION":1,
				"NORMAL":2,
				"TEXCOORD_0":3
			},
			"indices":0,
			"material":0
		}]
	}],
	"accessors":[{
		"bufferView":0,
		"type":"SCALAR",
		"componentType":5123,
		"count":16254,
		"byteOffset":0,
		"min":[0],
		"max":[4296]
	},
	{
		"bufferView":1,
		"type":"VEC3",
		"componentType":5126,
		"count":4297,
		"byteOffset":0,
		"min":[-25.640451431274415,
		0.19657623767852784,
		-17.466995239257814],
		"max":[24.72710609436035,
		43.920780181884769,
		20.82149314880371]
	},
	{
		"bufferView":1,
		"type":"VEC3",
		"componentType":5126,
		"count":4297,
		"byteOffset":12,
		"min":[-1.0,
		-1.0,
		-0.999970018863678],
		"max":[1.0,
		1.0,
		0.9995576739311218]
	},
	{
		"bufferView":1,
		"type":"VEC2",
		"componentType":5126,
		"count":4297,
		"byteOffset":24,
		"min":[0.0014481386169791222,
		0.0014481544494628907],
		"max":[0.9985518455505371,
		0.9973266124725342]
	}],
	"bufferViews":[{
		"buffer":0,
		"byteOffset":0,
		"byteLength":32508,
		"target":34963
	},
	{
		"buffer":0,
		"byteOffset":32508,
		"byteLength":137504,
		"byteStride":32,
		"target":34962
	}],
	"buffers":[{
		"uri":"data:application/octet-stream;base64,",
		"byteLength":170012
	}]
}