{
	"asset":{
		"version":"2.0",
		"generator":"Created using the official Cinema 4D glTF Exporter 1.000x284978"
	},
	"scenes":[{
		"nodes":[0]
	}],
	"nodes":[{
		"name":"BODY_STRONG",
		"mesh":0
	}],
	"materials":[{
		"pbrMetallicRoughness":{
			"baseColorFactor":[1.0,
			1.0,
			1.0,
			1.0],
			"metallicFactor":1.0,
			"roughnessFactor":1.0
		},
		"emissiveFactor":[0.0,
		0.0,
		0.0],
		"alphaMode":"OPAQUE",
		"doubleSided":false,
		"name":""
	}],
	"meshes":[{
		"name":"BODY_STRONG",
		"primitives":[{
			"attributes":{
				"POSITION":1,
				"NORMAL":2,
				"TEXCOORD_0":3
			},
			"indices":0,
			"material":0
		}]
	}],
	"accessors":[{
		"bufferView":0,
		"type":"SCALAR",
		"componentType":5123,
		"count":70056,
		"byteOffset":0,
		"min":[0],
		"max":[18689]
	},
	{
		"bufferView":1,
		"type":"VEC3",
		"componentType":5126,
		"count":18690,
		"byteOffset":0,
		"min":[-83.79456329345703,
		-28.387697219848634,
		-20.04364585876465],
		"max":[83.91020202636719,
		35.387638092041019,
		55.765499114990237]
	},
	{
		"bufferView":1,
		"type":"VEC3",
		"componentType":5126,
		"count":18690,
		"byteOffset":12,
		"min":[-0.9999996423721314,
		-0.9994703531265259,
		-1.0],
		"max":[0.9999995231628418,
		0.9995359182357788,
		0.999828577041626]
	},
	{
		"bufferView":1,
		"type":"VEC2",
		"componentType":5126,
		"count":18690,
		"byteOffset":24,
		"min":[0.0,
		0.0],
		"max":[0.998854398727417,
		0.998198390007019]
	}],
	"bufferViews":[{
		"buffer":0,
		"byteOffset":0,
		"byteLength":140112,
		"target":34963
	},
	{
		"buffer":0,
		"byteOffset":140112,
		"byteLength":598080,
		"byteStride":32,
		"target":34962
	}],
	"buffers":[{
		"uri":"data:application/octet-stream;base64,",
		"byteLength":738192
	}]
}