{
	"asset":{
		"version":"2.0",
		"generator":"Created using the official Cinema 4D glTF Exporter 1.000x284978"
	},
	"scenes":[{
		"nodes":[0]
	}],
	"accessors":[{
		"bufferView":0,
		"type":"SCALAR",
		"max":[12165],
		"componentType":5123,
		"count":33018,
		"byteOffset":0,
		"min":[0]
	},
	{
		"bufferView":1,
		"type":"VEC3",
		"max":[9.385847091674805,
		44.24895477294922,
		22.179262161254884],
		"componentType":5126,
		"count":12166,
		"byteOffset":0,
		"min":[-9.385847091674805,
		-2.743024367646285e-7,
		-22.17926788330078]
	},
	{
		"bufferView":1,
		"type":"VEC3",
		"max":[1.0,
		1.0,
		1.0],
		"componentType":5126,
		"count":12166,
		"byteOffset":12,
		"min":[-1.0,
		-1.0,
		-1.0]
	},
	{
		"bufferView":1,
		"type":"VEC2",
		"max":[0.996307373046875,
		0.9988584518432617],
		"componentType":5126,
		"count":12166,
		"byteOffset":24,
		"min":[0.001141499960795045,
		0.0011414885520935059]
	}],
	"nodes":[{
		"name":"LEGS_ROLLER",
		"children":[1]
	},
	{
		"name":"Robot_002",
		"mesh":0
	}],
	"materials":[{
		"pbrMetallicRoughness":{
			"baseColorFactor":[1.0,
			1.0,
			1.0,
			1.0],
			"metallicFactor":1.0,
			"roughnessFactor":1.0
		},
		"emissiveFactor":[0.0,
		0.0,
		0.0],
		"name":"",
		"alphaMode":"OPAQUE",
		"doubleSided":false
	}],
	"meshes":[{
		"name":"Robot_002",
		"primitives":[{
			"attributes":{
				"POSITION":1,
				"NORMAL":2,
				"TEXCOORD_0":3
			},
			"indices":0,
			"material":0
		}]
	}],
	"bufferViews":[{
		"buffer":0,
		"byteOffset":0,
		"byteLength":66036,
		"target":34963
	},
	{
		"buffer":0,
		"byteOffset":66036,
		"byteLength":389312,
		"target":34962,
		"byteStride":32
	}],
	"buffers":[{
		"uri":"data:application/octet-stream;base64,",
		"byteLength":455348
	}]
}