{
	"asset":{
		"version":"2.0",
		"generator":"Created using the official Cinema 4D glTF Exporter 1.000x284978"
	},
	"scenes":[{
		"nodes":[0]
	}],
	"accessors":[{
		"bufferView":0,
		"type":"SCALAR",
		"max":[7537],
		"componentType":5123,
		"count":44544,
		"byteOffset":0,
		"min":[0]
	},
	{
		"bufferView":1,
		"type":"VEC3",
		"max":[6.331752300262451,
		45.64589309692383,
		6.418902397155762],
		"componentType":5126,
		"count":7538,
		"byteOffset":0,
		"min":[-6.272562503814697,
		-0.46867504715919497,
		-6.18541145324707]
	},
	{
		"bufferView":1,
		"type":"VEC3",
		"max":[0.9999583959579468,
		1.0,
		0.9999583959579468],
		"componentType":5126,
		"count":7538,
		"byteOffset":12,
		"min":[-0.9999585151672363,
		-1.0,
		-0.9999583959579468]
	},
	{
		"bufferView":1,
		"type":"VEC2",
		"max":[0.8750001192092896,
		1.0],
		"componentType":5126,
		"count":7538,
		"byteOffset":24,
		"min":[0.1250000149011612,
		-1.1920928955078126e-7]
	},
	{
		"bufferView":2,
		"type":"SCALAR",
		"max":[6388],
		"componentType":5123,
		"count":35664,
		"byteOffset":0,
		"min":[0]
	},
	{
		"bufferView":3,
		"type":"VEC3",
		"max":[23.019121170043947,
		67.05865478515625,
		15.576147079467774],
		"componentType":5126,
		"count":6389,
		"byteOffset":0,
		"min":[-23.019121170043947,
		-2.1009435653686525,
		-30.34743881225586]
	},
	{
		"bufferView":3,
		"type":"VEC3",
		"max":[0.9995613098144531,
		0.99990314245224,
		0.9999146461486816],
		"componentType":5126,
		"count":6389,
		"byteOffset":12,
		"min":[-0.9995613098144531,
		-0.9996600151062012,
		-0.9999741911888123]
	},
	{
		"bufferView":3,
		"type":"VEC2",
		"max":[0.6880186796188355,
		1.0],
		"componentType":5126,
		"count":6389,
		"byteOffset":24,
		"min":[0.0,
		0.030878782272338868]
	},
	{
		"bufferView":4,
		"type":"SCALAR",
		"max":[23231],
		"componentType":5123,
		"count":135168,
		"byteOffset":0,
		"min":[0]
	},
	{
		"bufferView":5,
		"type":"VEC3",
		"max":[6.663817882537842,
		43.002540588378909,
		6.758347034454346],
		"componentType":5126,
		"count":23232,
		"byteOffset":0,
		"min":[-6.585852146148682,
		19.396425247192384,
		-6.491316318511963]
	},
	{
		"bufferView":5,
		"type":"VEC3",
		"max":[0.7567723393440247,
		0.7674440145492554,
		0.7567924857139587],
		"componentType":5126,
		"count":23232,
		"byteOffset":12,
		"min":[-0.7567911744117737,
		-0.7674533724784851,
		-0.7567827105522156]
	},
	{
		"bufferView":5,
		"type":"VEC2",
		"max":[1.0,
		0.4905328154563904],
		"componentType":5126,
		"count":23232,
		"byteOffset":24,
		"min":[0.0,
		0.00946718454360962]
	}],
	"nodes":[{
		"name":"WEB_LIGHT_A",
		"children":[1,
		2,
		3]
	},
	{
		"name":"Bulb_Metal_Fitting_Static",
		"mesh":0
	},
	{
		"name":"Bulb_Glass_V1_3",
		"translation":[-4.6566128730773928e-7,
		-0.4456576704978943,
		-0.0000029802322387695314],
		"rotation":[-0.08715572208166123,
		0.0,
		0.0,
		-0.9961947202682495],
		"scale":[1.0,
		1.0,
		1.0],
		"mesh":1
	},
	{
		"name":"Bulb_Coil_Cone_V1",
		"mesh":2
	}],
	"materials":[{
		"pbrMetallicRoughness":{
			"baseColorFactor":[1.0,
			1.0,
			1.0,
			1.0],
			"metallicFactor":1.0,
			"roughnessFactor":1.0
		},
		"emissiveFactor":[0.0,
		0.0,
		0.0],
		"name":"",
		"alphaMode":"OPAQUE",
		"doubleSided":false
	},
	{
		"pbrMetallicRoughness":{
			"baseColorFactor":[1.0,
			1.0,
			1.0,
			1.0],
			"metallicFactor":1.0,
			"roughnessFactor":1.0
		},
		"emissiveFactor":[0.0,
		0.0,
		0.0],
		"name":"",
		"alphaMode":"OPAQUE",
		"doubleSided":false
	},
	{
		"pbrMetallicRoughness":{
			"baseColorFactor":[1.0,
			1.0,
			1.0,
			1.0],
			"metallicFactor":1.0,
			"roughnessFactor":1.0
		},
		"emissiveFactor":[0.0,
		0.0,
		0.0],
		"name":"",
		"alphaMode":"OPAQUE",
		"doubleSided":false
	}],
	"meshes":[{
		"name":"Bulb_Metal_Fitting_Static",
		"primitives":[{
			"attributes":{
				"POSITION":1,
				"NORMAL":2,
				"TEXCOORD_0":3
			},
			"indices":0,
			"material":0
		}]
	},
	{
		"name":"Bulb_Glass_V1_3",
		"primitives":[{
			"attributes":{
				"POSITION":5,
				"NORMAL":6,
				"TEXCOORD_0":7
			},
			"indices":4,
			"material":1
		}]
	},
	{
		"name":"Bulb_Coil_Cone_V1",
		"primitives":[{
			"attributes":{
				"POSITION":9,
				"NORMAL":10,
				"TEXCOORD_0":11
			},
			"indices":8,
			"material":2
		}]
	}],
	"bufferViews":[{
		"buffer":0,
		"byteOffset":0,
		"byteLength":89088,
		"target":34963
	},
	{
		"buffer":0,
		"byteOffset":89088,
		"byteLength":241216,
		"target":34962,
		"byteStride":32
	},
	{
		"buffer":1,
		"byteOffset":0,
		"byteLength":71328,
		"target":34963
	},
	{
		"buffer":1,
		"byteOffset":71328,
		"byteLength":204448,
		"target":34962,
		"byteStride":32
	},
	{
		"buffer":2,
		"byteOffset":0,
		"byteLength":270336,
		"target":34963
	},
	{
		"buffer":2,
		"byteOffset":270336,
		"byteLength":743424,
		"target":34962,
		"byteStride":32
	}],
	"buffers":[{
		"uri":"data:application/octet-stream;base64,",
		"byteLength":330304
	},
	{
		"uri":"data:application/octet-stream;base64,",
		"byteLength":275776
	},
	{
		"uri":"data:application/octet-stream;base64,",
		"byteLength":1013760
	}]
}