{
	"asset":{
		"version":"2.0",
		"generator":"Created using the official Cinema 4D glTF Exporter 1.000x284978"
	},
	"scenes":[{
		"nodes":[0]
	}],
	"nodes":[{
		"name":"LEGS_LONG",
		"mesh":0
	}],
	"materials":[{
		"pbrMetallicRoughness":{
			"baseColorFactor":[1.0,
			1.0,
			1.0,
			1.0],
			"metallicFactor":1.0,
			"roughnessFactor":1.0
		},
		"emissiveFactor":[0.0,
		0.0,
		0.0],
		"alphaMode":"OPAQUE",
		"doubleSided":false,
		"name":""
	}],
	"meshes":[{
		"name":"LEGS_LONG",
		"primitives":[{
			"attributes":{
				"POSITION":1,
				"NORMAL":2,
				"TEXCOORD_0":3
			},
			"indices":0,
			"material":0
		}]
	}],
	"accessors":[{
		"bufferView":0,
		"type":"SCALAR",
		"componentType":5123,
		"count":89640,
		"byteOffset":0,
		"min":[0],
		"max":[19395]
	},
	{
		"bufferView":1,
		"type":"VEC3",
		"componentType":5126,
		"count":19396,
		"byteOffset":0,
		"min":[-28.371110916137697,
		0.09488066285848618,
		-17.46697425842285],
		"max":[29.24672508239746,
		69.88990783691406,
		20.82151222229004]
	},
	{
		"bufferView":1,
		"type":"VEC3",
		"componentType":5126,
		"count":19396,
		"byteOffset":12,
		"min":[-1.0,
		-1.0,
		-1.0],
		"max":[1.0,
		1.0,
		1.0]
	},
	{
		"bufferView":1,
		"type":"VEC2",
		"componentType":5126,
		"count":19396,
		"byteOffset":24,
		"min":[0.0010776591952890158,
		0.0010776519775390626],
		"max":[0.9930733442306519,
		0.9989223480224609]
	}],
	"bufferViews":[{
		"buffer":0,
		"byteOffset":0,
		"byteLength":179280,
		"target":34963
	},
	{
		"buffer":0,
		"byteOffset":179280,
		"byteLength":620672,
		"byteStride":32,
		"target":34962
	}],
	"buffers":[{
		"uri":"data:application/octet-stream;base64,",
		"byteLength":799952
	}]
}