{
	"asset":{
		"version":"2.0",
		"generator":"Created using the official Cinema 4D glTF Exporter 1.000x284978"
	},
	"scenes":[{
		"nodes":[0]
	}],
	"nodes":[{
		"name":"BODY_BASIC",
		"mesh":0
	}],
	"materials":[{
		"pbrMetallicRoughness":{
			"baseColorFactor":[1.0,
			1.0,
			1.0,
			1.0],
			"metallicFactor":1.0,
			"roughnessFactor":1.0
		},
		"emissiveFactor":[0.0,
		0.0,
		0.0],
		"alphaMode":"OPAQUE",
		"doubleSided":false,
		"name":""
	}],
	"meshes":[{
		"name":"BODY_BASIC",
		"primitives":[{
			"attributes":{
				"POSITION":1,
				"NORMAL":2,
				"TEXCOORD_0":3
			},
			"indices":0,
			"material":0
		}]
	}],
	"accessors":[{
		"bufferView":0,
		"type":"SCALAR",
		"componentType":5123,
		"count":186360,
		"byteOffset":0,
		"min":[0],
		"max":[41745]
	},
	{
		"bufferView":1,
		"type":"VEC3",
		"componentType":5126,
		"count":41746,
		"byteOffset":0,
		"min":[-40.3347053527832,
		-17.05901336669922,
		-19.106767654418947],
		"max":[49.660728454589847,
		32.5606689453125,
		37.77376937866211]
	},
	{
		"bufferView":1,
		"type":"VEC3",
		"componentType":5126,
		"count":41746,
		"byteOffset":12,
		"min":[-1.0,
		-1.0,
		-1.0],
		"max":[1.0,
		1.0,
		1.0]
	},
	{
		"bufferView":1,
		"type":"VEC2",
		"componentType":5126,
		"count":41746,
		"byteOffset":24,
		"min":[0.0012264116667211056,
		0.0012264251708984376],
		"max":[0.9974881410598755,
		0.9987735748291016]
	}],
	"bufferViews":[{
		"buffer":0,
		"byteOffset":0,
		"byteLength":372720,
		"target":34963
	},
	{
		"buffer":0,
		"byteOffset":372720,
		"byteLength":1335872,
		"target":34962,
		"byteStride":32
	}],
	"buffers":[{
		"uri":"data:application/octet-stream;base64,",
		"byteLength":1708592
	}]
}